<svg xmlns="http://www.w3.org/2000/svg" xmlns:xlink="http://www.w3.org/1999/xlink" width="1012pt" height="98pt" viewBox="0 0 1012.34 98"><g id="graph0" class="graph" transform="scale(1 1) rotate(0) translate(4 94)"><title>mlrun-flow</title><polygon fill="#fff" stroke="transparent" points="-4 4 -4 -94 1008.342 -94 1008.342 4 -4 4"/><g id="node1" class="node"><title>_start</title><polygon fill="#d3d3d3" stroke="#000" points="38.548 -27.049 40.698 -27.148 42.826 -27.295 44.924 -27.491 46.981 -27.735 48.992 -28.027 50.946 -28.364 52.838 -28.748 54.659 -29.176 56.403 -29.647 58.063 -30.161 59.634 -30.715 61.111 -31.308 62.488 -31.939 63.763 -32.605 64.93 -33.306 65.988 -34.038 66.934 -34.801 67.767 -35.592 68.485 -36.408 69.088 -37.248 69.576 -38.109 69.95 -38.989 70.21 -39.886 70.359 -40.797 70.4 -41.719 70.333 -42.65 70.164 -43.587 69.894 -44.529 69.528 -45.471 69.069 -46.413 68.522 -47.35 67.892 -48.281 67.183 -49.203 66.4 -50.114 65.546 -51.011 64.629 -51.891 63.65 -52.752 62.617 -53.592 61.533 -54.408 60.402 -55.199 59.23 -55.962 58.02 -56.694 56.776 -57.395 55.501 -58.061 54.2 -58.692 52.876 -59.285 51.531 -59.839 50.168 -60.353 48.791 -60.824 47.4 -61.252 45.999 -61.636 44.589 -61.973 43.171 -62.265 41.747 -62.509 40.319 -62.705 38.887 -62.852 37.453 -62.951 36.017 -63 34.581 -63 33.146 -62.951 31.712 -62.852 30.28 -62.705 28.852 -62.509 27.428 -62.265 26.011 -61.973 24.6 -61.636 23.199 -61.252 21.808 -60.824 20.431 -60.353 19.068 -59.839 17.723 -59.285 16.399 -58.692 15.098 -58.061 13.824 -57.395 12.579 -56.694 11.369 -55.962 10.197 -55.199 9.066 -54.408 7.982 -53.592 6.949 -52.752 5.971 -51.891 5.053 -51.011 4.199 -50.114 3.416 -49.203 2.707 -48.281 2.076 -47.35 1.53 -46.413 1.071 -45.471 .705 -44.529 .435 -43.587 .266 -42.65 .199 -41.719 .239 -40.797 .389 -39.886 .649 -38.989 1.023 -38.109 1.511 -37.248 2.114 -36.408 2.832 -35.592 3.665 -34.801 4.611 -34.038 5.669 -33.306 6.837 -32.605 8.111 -31.939 9.488 -31.308 10.965 -30.715 12.536 -30.161 14.197 -29.647 15.94 -29.176 17.761 -28.748 19.653 -28.364 21.607 -28.027 23.618 -27.735 25.675 -27.491 27.773 -27.295 29.901 -27.148 32.051 -27.049 34.215 -27 36.384 -27 38.548 -27.049"/><text x="35.3" y="-41.3" fill="#000" font-family="Times,serif" font-size="14" text-anchor="middle">start</text></g><g id="node2" class="node"><title>MyMap</title><ellipse cx="152.745" cy="-45" fill="none" stroke="#000" rx="46.292" ry="18"/><text x="152.745" y="-41.3" fill="#000" font-family="Times,serif" font-size="14" text-anchor="middle">MyMap</text></g><g id="edge1" class="edge"><title>_start-&gt;MyMap</title><path fill="none" stroke="#000" d="M69.9018,-45C78.1609,-45 87.1905,-45 96.1538,-45"/><polygon fill="#000" stroke="#000" points="96.201 -48.5 106.201 -45 96.201 -41.5 96.201 -48.5"/></g><g id="node3" class="node"><title>storey.Extend</title><ellipse cx="310.284" cy="-45" fill="none" stroke="#000" rx="75.287" ry="18"/><text x="310.284" y="-41.3" fill="#000" font-family="Times,serif" font-size="14" text-anchor="middle">storey.Extend</text></g><g id="edge2" class="edge"><title>MyMap-&gt;storey.Extend</title><path fill="none" stroke="#000" d="M199.1598,-45C207.1838,-45 215.7499,-45 224.4316,-45"/><polygon fill="#000" stroke="#000" points="224.651 -48.5 234.651 -45 224.651 -41.5 224.651 -48.5"/></g><g id="node4" class="node"><title>filter</title><ellipse cx="455.474" cy="-45" fill="none" stroke="#000" rx="33.595" ry="18"/><text x="455.474" y="-41.3" fill="#000" font-family="Times,serif" font-size="14" text-anchor="middle">filter</text></g><g id="edge3" class="edge"><title>storey.Extend-&gt;filter</title><path fill="none" stroke="#000" d="M385.8561,-45C394.6736,-45 403.4325,-45 411.6112,-45"/><polygon fill="#000" stroke="#000" points="411.621 -48.5 421.621 -45 411.621 -41.5 411.621 -48.5"/></g><g id="node5" class="node"><title>FeaturesetValidator</title><ellipse cx="627.962" cy="-45" fill="none" stroke="#000" rx="102.882" ry="18"/><text x="627.962" y="-41.3" fill="#000" font-family="Times,serif" font-size="14" text-anchor="middle">FeaturesetValidator</text></g><g id="edge4" class="edge"><title>filter-&gt;FeaturesetValidator</title><path fill="none" stroke="#000" d="M489.5525,-45C497.3395,-45 506.0352,-45 515.1713,-45"/><polygon fill="#000" stroke="#000" points="515.236 -48.5 525.236 -45 515.236 -41.5 515.236 -48.5"/></g><g id="node6" class="node"><title>Aggregates</title><ellipse cx="830.998" cy="-45" fill="none" stroke="#000" rx="64.189" ry="18"/><text x="830.998" y="-41.3" fill="#000" font-family="Times,serif" font-size="14" text-anchor="middle">Aggregates</text></g><g id="edge5" class="edge"><title>FeaturesetValidator-&gt;Aggregates</title><path fill="none" stroke="#000" d="M730.6696,-45C739.3404,-45 747.9997,-45 756.3944,-45"/><polygon fill="#000" stroke="#000" points="756.486 -48.5 766.486 -45 756.486 -41.5 756.486 -48.5"/></g><g id="node7" class="node"><title>parquet</title><path fill="none" stroke="#000" d="M1004.3418,-86.7273C1004.3418,-88.5331 987.982,-90 967.8418,-90 947.7017,-90 931.3418,-88.5331 931.3418,-86.7273 931.3418,-86.7273 931.3418,-57.2727 931.3418,-57.2727 931.3418,-55.4669 947.7017,-54 967.8418,-54 987.982,-54 1004.3418,-55.4669 1004.3418,-57.2727 1004.3418,-57.2727 1004.3418,-86.7273 1004.3418,-86.7273"/><path fill="none" stroke="#000" d="M1004.3418,-86.7273C1004.3418,-84.9214 987.982,-83.4545 967.8418,-83.4545 947.7017,-83.4545 931.3418,-84.9214 931.3418,-86.7273"/><text x="967.842" y="-68.3" fill="#000" font-family="Times,serif" font-size="14" text-anchor="middle">parquet</text></g><g id="edge6" class="edge"><title>Aggregates-&gt;parquet</title><path fill="none" stroke="#000" d="M883.9051,-55.4389C896.2444,-57.8735 909.2943,-60.4483 921.3324,-62.8235"/><polygon fill="#000" stroke="#000" points="920.68 -66.262 931.169 -64.764 922.035 -59.395 920.68 -66.262"/></g><g id="node8" class="node"><title>nosql</title><path fill="none" stroke="#000" d="M995.3418,-32.7273C995.3418,-34.5331 983.0159,-36 967.8418,-36 952.6678,-36 940.3418,-34.5331 940.3418,-32.7273 940.3418,-32.7273 940.3418,-3.2727 940.3418,-3.2727 940.3418,-1.4669 952.6678,0 967.8418,0 983.0159,0 995.3418,-1.4669 995.3418,-3.2727 995.3418,-3.2727 995.3418,-32.7273 995.3418,-32.7273"/><path fill="none" stroke="#000" d="M995.3418,-32.7273C995.3418,-30.9214 983.0159,-29.4545 967.8418,-29.4545 952.6678,-29.4545 940.3418,-30.9214 940.3418,-32.7273"/><text x="967.842" y="-14.3" fill="#000" font-family="Times,serif" font-size="14" text-anchor="middle">nosql</text></g><g id="edge7" class="edge"><title>Aggregates-&gt;nosql</title><path fill="none" stroke="#000" d="M883.9051,-34.5611C899.3986,-31.5042 916.0123,-28.2262 930.3369,-25.3999"/><polygon fill="#000" stroke="#000" points="931.181 -28.801 940.314 -23.431 929.826 -21.933 931.181 -28.801"/></g></g></svg>