<svg xmlns="http://www.w3.org/2000/svg" xmlns:xlink="http://www.w3.org/1999/xlink" width="848" height="272" viewBox="0 0 636.27 204"><g id="graph0" class="graph" transform="scale(1 1) rotate(0) translate(4 200)"><title>mlrun-flow</title><polygon fill="#fff" stroke="transparent" points="-4 4 -4 -200 632.271 -200 632.271 4 -4 4"/><g id="clust1" class="cluster"><title>cluster_ensemble</title><polygon fill="none" stroke="#000" points="382.48 -46 382.48 -152 620.271 -152 620.271 -46 382.48 -46"/></g><g id="node1" class="node"><title>_start</title><polygon fill="#d3d3d3" stroke="#000" points="38.548 -120.049 40.698 -120.148 42.826 -120.295 44.924 -120.491 46.981 -120.735 48.992 -121.027 50.946 -121.365 52.838 -121.748 54.659 -122.176 56.403 -122.647 58.063 -123.161 59.634 -123.715 61.111 -124.308 62.488 -124.939 63.763 -125.605 64.93 -126.306 65.988 -127.038 66.934 -127.801 67.767 -128.592 68.485 -129.408 69.088 -130.248 69.576 -131.109 69.95 -131.989 70.21 -132.886 70.359 -133.797 70.4 -134.719 70.333 -135.65 70.164 -136.587 69.894 -137.529 69.528 -138.471 69.069 -139.413 68.522 -140.35 67.892 -141.281 67.183 -142.203 66.4 -143.114 65.546 -144.011 64.629 -144.891 63.65 -145.752 62.617 -146.592 61.533 -147.408 60.402 -148.199 59.23 -148.962 58.02 -149.694 56.776 -150.395 55.501 -151.061 54.2 -151.692 52.876 -152.285 51.531 -152.839 50.168 -153.353 48.791 -153.824 47.4 -154.252 45.999 -154.636 44.589 -154.973 43.171 -155.265 41.747 -155.509 40.319 -155.705 38.887 -155.852 37.453 -155.951 36.017 -156 34.581 -156 33.146 -155.951 31.712 -155.852 30.28 -155.705 28.852 -155.509 27.428 -155.265 26.011 -154.973 24.6 -154.636 23.199 -154.252 21.808 -153.824 20.431 -153.353 19.068 -152.839 17.723 -152.285 16.399 -151.692 15.098 -151.061 13.824 -150.395 12.579 -149.694 11.369 -148.962 10.197 -148.199 9.066 -147.408 7.982 -146.592 6.949 -145.752 5.971 -144.891 5.053 -144.011 4.199 -143.114 3.416 -142.203 2.707 -141.281 2.076 -140.35 1.53 -139.413 1.071 -138.471 .705 -137.529 .435 -136.587 .266 -135.65 .199 -134.719 .239 -133.797 .389 -132.886 .649 -131.989 1.023 -131.109 1.511 -130.248 2.114 -129.408 2.832 -128.592 3.665 -127.801 4.611 -127.038 5.669 -126.306 6.837 -125.605 8.111 -124.939 9.488 -124.308 10.965 -123.715 12.536 -123.161 14.197 -122.647 15.94 -122.176 17.761 -121.748 19.653 -121.365 21.607 -121.027 23.618 -120.735 25.675 -120.491 27.773 -120.295 29.901 -120.148 32.051 -120.049 34.215 -120 36.384 -120 38.548 -120.049"/><text x="35.3" y="-134.3" fill="#000" font-family="Times,serif" font-size="14" text-anchor="middle">start</text></g><g id="node2" class="node"><title>enrich</title><ellipse cx="146.895" cy="-138" fill="none" stroke="#000" rx="40.094" ry="18"/><text x="146.895" y="-134.3" fill="#000" font-family="Times,serif" font-size="14" text-anchor="middle">enrich</text></g><g id="edge1" class="edge"><title>_start-&gt;enrich</title><path fill="none" stroke="#000" d="M69.9975,-138C78.2752,-138 87.2796,-138 96.1148,-138"/><polygon fill="#000" stroke="#000" points="96.355 -141.5 106.355 -138 96.355 -134.5 96.355 -141.5"/></g><g id="node3" class="node"><title>pre-process</title><ellipse cx="288.836" cy="-138" fill="none" stroke="#000" rx="65.789" ry="18"/><text x="288.836" y="-134.3" fill="#000" font-family="Times,serif" font-size="14" text-anchor="middle">pre-process</text></g><g id="edge2" class="edge"><title>enrich-&gt;pre-process</title><path fill="none" stroke="#000" d="M187.57,-138C195.5188,-138 204.0918,-138 212.767,-138"/><polygon fill="#000" stroke="#000" points="212.966 -141.5 222.966 -138 212.966 -134.5 212.966 -141.5"/></g><g id="node4" class="node"><title>catcher</title><ellipse cx="454.277" cy="-178" fill="none" stroke="#000" rx="46.292" ry="18"/><text x="454.277" y="-174.3" fill="#000" font-family="Times,serif" font-size="14" text-anchor="middle">catcher</text></g><g id="edge3" class="edge"><title>pre-process-&gt;catcher</title><path fill="none" stroke="#000" stroke-dasharray="5 2" d="M338.4738,-150.0013C359.495,-155.0838 383.9289,-160.9913 404.9196,-166.0664"/><polygon fill="#000" stroke="#000" points="404.375 -169.536 414.918 -168.484 406.02 -162.732 404.375 -169.536"/></g><g id="node5" class="node"><title>ensemble</title><polygon fill="none" stroke="#000" points="513.884 -90.544 513.884 -105.456 478.967 -116 429.587 -116 394.67 -105.456 394.67 -90.544 429.587 -80 478.967 -80 513.884 -90.544"/><polygon fill="none" stroke="#000" points="517.871 -87.571 517.871 -108.429 479.554 -120 429 -120 390.683 -108.429 390.683 -87.571 429 -76 479.554 -76 517.871 -87.571"/><text x="454.277" y="-94.3" fill="#000" font-family="Times,serif" font-size="14" text-anchor="middle">ensemble</text></g><g id="edge6" class="edge"><title>pre-process-&gt;ensemble</title><path fill="none" stroke="#000" d="M338.4738,-125.9987C354.6253,-122.0936 372.7914,-117.7015 389.8624,-113.5741"/><polygon fill="#000" stroke="#000" points="390.866 -116.932 399.764 -111.18 389.221 -110.128 390.866 -116.932"/></g><g id="node6" class="node"><title>ensemble/m1</title><ellipse cx="585.271" cy="-72" fill="none" stroke="#000" rx="27" ry="18"/><text x="585.271" y="-68.3" fill="#000" font-family="Times,serif" font-size="14" text-anchor="middle">m1</text></g><g id="edge4" class="edge"><title>ensemble-&gt;ensemble/m1</title><path fill="none" stroke="#000" d="M513.6418,-86.2172C525.7485,-83.8142 538.1371,-81.3553 549.1335,-79.1727"/><polygon fill="#000" stroke="#000" points="550.068 -82.556 559.195 -77.176 548.705 -75.689 550.068 -82.556"/></g><g id="node7" class="node"><title>ensemble/m2</title><ellipse cx="585.271" cy="-126" fill="none" stroke="#000" rx="27" ry="18"/><text x="585.271" y="-122.3" fill="#000" font-family="Times,serif" font-size="14" text-anchor="middle">m2</text></g><g id="edge5" class="edge"><title>ensemble-&gt;ensemble/m2</title><path fill="none" stroke="#000" d="M512.1143,-110.3627C524.8132,-113.0771 537.9014,-115.8747 549.4343,-118.3399"/><polygon fill="#000" stroke="#000" points="549.022 -121.831 559.533 -120.498 550.485 -114.985 549.022 -121.831"/></g><g id="node8" class="node"><title>final</title><ellipse cx="585.271" cy="-18" fill="none" stroke="#000" rx="31.396" ry="18"/><text x="585.271" y="-14.3" fill="#000" font-family="Times,serif" font-size="14" text-anchor="middle">final</text></g><g id="edge7" class="edge"><title>ensemble-&gt;final</title><path fill="none" stroke="#000" d="M539.419,-46.0026C544.8877,-42.6628 550.155,-39.446 555.048,-36.4577"/><polygon fill="#000" stroke="#000" points="556.909 -39.422 563.62 -31.223 553.261 -33.448 556.909 -39.422"/></g></g></svg>